<?xml version="1.0" encoding="UTF-8"?>
<svg id="_레이어_2" data-name="레이어 2" xmlns="http://www.w3.org/2000/svg" viewBox="0 0 1216.91 246.98">
  <defs>
    <style>
      .cls-1 {
        fill: #fff;
      }

      .cls-2 {
        fill: #1b4577;
      }

      .cls-3 {
        fill: #2c7dff;
      }

      .cls-4 {
        fill: #474747;
      }

      .cls-5 {
        fill: #052277;
      }
    </style>
  </defs>
  <g id="_레이어_1-2" data-name="레이어 1">
    <g>
      <path class="cls-1" d="m160.95,229.27h-.3s-.28,0-.28,0H0l52.25-71.9C23.94,144.03,5.2,115.31,5.2,83.08,5.2,37.79,42.04.95,87.32.95h.3s.28,0,.28,0h160.37l-52.25,71.9c28.32,13.34,47.06,42.06,47.06,74.29,0,45.29-36.84,82.13-82.13,82.13Zm-.11-21.63l-.09,10.81.28-10.81c33.27,0,60.41-27.14,60.41-60.5,0-27.6-18.64-51.69-45.32-58.58l-15.38-3.97,45.07-62.01h-118.39s.09-10.81.09-10.81l-.28,10.81c-33.27,0-60.41,27.14-60.41,60.5,0,27.6,18.64,51.69,45.32,58.58l15.38,3.97-45.07,62.01h118.39Z"/>
      <g>
        <path class="cls-3" d="m160.36,75.84h.02c.1,0,.19,0,.29,0,.1,0,.19,0,.29,0,6.18,0,12.17.79,17.89,2.26L227.05,11.76H87.9c-.1,0-.19,0-.29,0-.1,0-.19,0-.29,0-39.38,0-71.31,31.93-71.31,71.31,0,33.21,22.7,61.11,53.43,69.05l30.73-42.28c13.24-18.94,34.73-33.79,60.19-34Z"/>
        <path class="cls-2" d="m178.84,78.09l-30.73,42.28c-13.24,18.94-34.73,33.79-60.19,34h-.02c-.1,0-.19,0-.29,0-.1,0-.19,0-.29,0-6.18,0-12.17-.79-17.89-2.26l-48.21,66.33h139.15c.1,0,.19,0,.29,0,.1,0,.19,0,.29,0,39.38,0,71.31-31.93,71.31-71.31,0-33.21-22.7-61.11-53.43-69.05Z"/>
        <path class="cls-5" d="m87.61,154.39c.1,0,.19,0,.29,0h.02c25.46-.22,46.95-15.07,60.19-34.01l30.73-42.28c-5.72-1.48-11.71-2.26-17.89-2.26-.1,0-.19,0-.29,0-.1,0-.19,0-.29,0h-.02c-25.46.22-46.95,15.07-60.19,34.01l-30.73,42.28c5.72,1.48,11.71,2.26,17.89,2.26.1,0,.19,0,.29,0Z"/>
      </g>
    </g>
    <g>
      <path class="cls-4" d="m369.11,92.48l-33.12-61.08v60.42c0,1.19-.79,1.99-1.99,1.99h-14.97c-1.19,0-1.99-.79-1.99-1.99V3.05c0-1.19.79-1.99,1.99-1.99h17.62c1.06,0,1.85.4,2.38,1.32l33.12,61.08V3.05c0-1.19.79-1.99,1.99-1.99h14.97c1.19,0,1.99.79,1.99,1.99v88.77c0,1.19-.79,1.99-1.99,1.99h-17.62c-1.06,0-1.85-.4-2.38-1.33Z"/>
      <path class="cls-4" d="m404.22,91.55L435.22,2.65c.4-1.06,1.46-1.59,2.52-1.59h16.03c1.06,0,2.12.53,2.52,1.59l31,88.9c.53,1.32-.27,2.25-1.72,2.25h-15.63c-1.06,0-1.85-.4-2.25-1.59l-4.5-13.65h-34.98l-4.5,13.65c-.4,1.19-1.19,1.59-2.25,1.59h-15.63c-1.46,0-2.12-.93-1.59-2.25Zm53.53-29.81l-12.06-36.83-12.06,36.83h24.11Z"/>
      <path class="cls-4" d="m511.01,92.21L480,3.31c-.53-1.33.13-2.25,1.59-2.25h15.63c1.06,0,1.85.4,2.25,1.59l21.99,67.31,21.99-67.31c.4-1.19,1.19-1.59,2.25-1.59h15.63c1.46,0,2.25.93,1.72,2.25l-31,88.9c-.4,1.06-1.46,1.59-2.52,1.59h-16.03c-1.06,0-2.12-.53-2.52-1.59Z"/>
      <path class="cls-4" d="m575.53,91.82V3.05c0-1.19.79-1.99,1.99-1.99h47.17c1.19,0,1.99.79,1.99,1.99v12.85c0,1.19-.79,1.99-1.99,1.99h-30.21v20.54h28.49c1.19,0,1.99.79,1.99,1.99v12.85c0,1.19-.79,1.99-1.99,1.99h-28.49v21.73h30.21c1.19,0,1.99.79,1.99,1.99v12.85c0,1.19-.79,1.99-1.99,1.99h-47.17c-1.19,0-1.99-.79-1.99-1.99Z"/>
      <path class="cls-4" d="m689.07,92.48l-19.61-31.14h-6.76v30.47c0,1.19-.79,1.99-1.99,1.99h-14.97c-1.19,0-1.99-.79-1.99-1.99V3.05c0-1.19.79-1.99,1.99-1.99h27.96c21.99,0,32.59,12.32,32.59,30.08,0,13.51-5.96,23.72-18.42,28.09l20.8,32.2c.93,1.46.27,2.38-1.32,2.38h-15.9c-1.06,0-1.85-.4-2.38-1.33Zm-16.03-47.96c8.08,0,15.1-2.78,15.1-13.38s-7.02-13.25-15.1-13.25h-10.33v26.63h10.33Z"/>
      <path class="cls-4" d="m771.21,92.21l-26.5-88.9c-.4-1.33.13-2.25,1.59-2.25h15.5c1.06,0,2.12.4,2.25,1.59l18.28,65.45,19.87-65.45c.4-1.19,1.06-1.59,2.25-1.59h14.44c1.19,0,1.86.4,2.25,1.59l19.87,65.45,18.28-65.45c.27-1.19,1.19-1.59,2.25-1.59h15.5c1.46,0,1.99.93,1.59,2.25l-26.5,88.9c-.26,1.06-1.33,1.59-2.52,1.59h-15.77c-1.19,0-2.25-.53-2.52-1.59l-19.61-67.31-19.74,67.31c-.26,1.06-1.33,1.59-2.52,1.59h-15.77c-1.19,0-2.25-.53-2.52-1.59Z"/>
      <path class="cls-4" d="m883.17,47.83c0-26.9,21.33-47.83,47.7-47.83s47.7,20.93,47.7,47.83-21.33,47.7-47.7,47.7-47.7-20.93-47.7-47.7Zm47.7,29.15c16.3,0,28.49-12.59,28.49-29.15s-12.19-29.28-28.49-29.28-28.49,12.59-28.49,29.28,12.32,29.15,28.49,29.15Z"/>
      <path class="cls-4" d="m1039.64,92.48l-19.61-31.14h-6.76v30.47c0,1.19-.79,1.99-1.99,1.99h-14.97c-1.19,0-1.99-.79-1.99-1.99V3.05c0-1.19.79-1.99,1.99-1.99h27.96c21.99,0,32.59,12.32,32.59,30.08,0,13.51-5.96,23.72-18.42,28.09l20.8,32.2c.93,1.46.26,2.38-1.33,2.38h-15.9c-1.06,0-1.85-.4-2.38-1.33Zm-16.03-47.96c8.08,0,15.1-2.78,15.1-13.38s-7.02-13.25-15.1-13.25h-10.33v26.63h10.33Z"/>
      <path class="cls-4" d="m1073.95,91.82V3.05c0-1.19.79-1.99,1.99-1.99h14.97c1.19,0,1.99.79,1.99,1.99v40.94l30.74-41.87c.66-.79,1.46-1.06,2.38-1.06h18.15c1.72,0,1.99,1.19,1.06,2.38l-30.74,38.95,34.45,49.02c.93,1.33.4,2.38-1.19,2.38h-17.36c-1.06,0-1.72-.26-2.39-1.19l-25.04-35.38-10.07,12.59v21.99c0,1.19-.79,1.99-1.99,1.99h-14.97c-1.19,0-1.99-.79-1.99-1.99Z"/>
      <path class="cls-4" d="m1155.83,80.95c-.66-.93-.66-1.86.26-2.92l7.68-8.88c.93-1.06,1.99-1.19,3.05-.26,5.83,5.96,11.13,9.14,18.68,9.14s12.98-3.31,12.98-9.94c0-6.23-4.64-8.48-11.13-11.39l-11.26-5.3c-9.8-4.5-18.55-11.53-18.55-25.31,0-16.83,12.85-26.1,28.62-26.1,11,0,19.87,4.37,27.16,12.19.93.93.93,1.99.13,3.05l-7.55,9.14c-.79,1.06-1.86,1.33-2.92.53-5.7-5.04-10.33-7.55-16.16-7.55-6.76,0-11,3.31-11,8.88s3.71,7.55,10.86,10.86l9.54,4.37c10.07,4.77,20.67,11,20.67,26.63,0,18.68-15.24,27.29-31,27.29-14.44,0-24.64-7.02-30.08-14.44Z"/>
    </g>
    <g>
      <path class="cls-3" d="m314.2,208.95c-.66-.93-.66-1.86.26-2.92l7.68-8.88c.93-1.06,1.99-1.19,3.05-.26,5.83,5.96,11.13,9.14,18.68,9.14s12.98-3.31,12.98-9.94c0-6.23-4.64-8.48-11.13-11.39l-11.26-5.3c-9.8-4.5-18.55-11.53-18.55-25.31,0-16.83,12.85-26.1,28.62-26.1,11,0,19.87,4.37,27.16,12.19.93.93.93,1.99.13,3.05l-7.55,9.14c-.79,1.06-1.86,1.33-2.92.53-5.7-5.04-10.33-7.55-16.16-7.55-6.76,0-11,3.31-11,8.88s3.71,7.55,10.86,10.86l9.54,4.37c10.07,4.77,20.67,11,20.67,26.63,0,18.68-15.24,27.29-31,27.29-14.44,0-24.64-7.02-30.08-14.44Z"/>
      <path class="cls-4" d="m388.26,135.16c0-5.57,4.37-10.07,10.2-10.07s10.07,4.5,10.07,10.07-4.24,10.2-10.07,10.2-10.2-4.5-10.2-10.2Zm.93,23.72c0-1.19.79-1.99,1.99-1.99h14.44c1.19,0,1.99.79,1.99,1.99v60.95c0,1.19-.79,1.99-1.99,1.99h-14.44c-1.19,0-1.99-.79-1.99-1.99v-60.95Z"/>
      <path class="cls-4" d="m423.5,219.82v-60.95c0-1.19.79-1.99,1.99-1.99h13.78c1.19,0,1.99.53,1.99,2.12l.4,6.89c3.58-6.09,9.41-10.6,18.28-10.6,8.35,0,14.84,3.97,18.42,11.53,3.58-6.62,9.94-11.53,20.01-11.53,13.91,0,22.39,9.54,22.39,26.5v38.03c0,1.19-.79,1.99-1.99,1.99h-14.31c-1.19,0-1.99-.79-1.99-1.99v-34.05c0-8.88-3.18-13.65-10.33-13.65s-10.86,4.77-10.86,13.65v34.05c0,1.19-.79,1.99-1.99,1.99h-14.18c-1.33,0-2.12-.79-2.12-1.99v-34.05c0-8.88-3.31-13.65-10.33-13.65s-10.86,4.77-10.86,13.65v34.05c0,1.19-.79,1.99-1.99,1.99h-14.31c-1.19,0-1.99-.79-1.99-1.99Z"/>
      <path class="cls-4" d="m536.38,244.99v-86.12c0-1.19.79-1.99,1.99-1.99h13.12c1.19,0,1.99.79,1.99,1.99l.27,7.15c4.37-6.76,11.26-10.73,21.2-10.73,18.15,0,30.74,14.84,30.74,34.05s-12.59,34.05-30.74,34.05c-8.88,0-15.63-3.44-20.14-9.27v30.87c0,1.19-.79,1.99-1.99,1.99h-14.44c-1.19,0-1.99-.79-1.99-1.99Zm34.71-38.29c9.54,0,16.69-6.89,16.69-17.36s-7.15-17.36-16.69-17.36-16.56,6.89-16.56,17.36,6.76,17.36,16.56,17.36Z"/>
      <path class="cls-4" d="m618.12,219.82v-90.76c0-1.19.79-1.99,1.99-1.99h14.44c1.19,0,1.99.79,1.99,1.99v90.76c0,1.19-.79,1.99-1.99,1.99h-14.44c-1.19,0-1.99-.79-1.99-1.99Z"/>
      <path class="cls-4" d="m648.99,189.08c0-19.08,13.38-33.79,33.39-33.79s31.14,14.57,31.14,31c0,6.36-1.46,9.94-7.15,9.94h-39.48c1.99,8.21,8.74,12.72,19.21,12.72,5.03,0,9.8-.93,15.1-3.97.93-.53,1.59-.4,2.25.53l4.9,6.76c.66.93.53,1.85-.66,2.91-5.56,5.57-13.91,8.21-23.05,8.21-21.33,0-35.64-14.71-35.64-34.32Zm48.23-5.7c-1.06-8.61-6.89-12.98-14.71-12.98s-14.31,4.37-15.9,12.98h30.61Z"/>
      <path class="cls-4" d="m725.84,219.82v-60.95c0-1.19.79-1.99,1.99-1.99h13.78c1.19,0,1.85.53,1.99,2.12l.53,8.35c2.25-6.89,6.36-12.06,14.04-12.06,3.05,0,4.9.79,5.96,1.59.93.66,1.19,1.46,1.19,2.65v11.66c0,1.59-.93,1.99-2.65,1.59-1.46-.4-2.91-.66-4.77-.66-9.01,0-13.78,5.96-13.78,15.24v32.46c0,1.19-.79,1.99-1.99,1.99h-14.31c-1.19,0-1.99-.79-1.99-1.99Z"/>
    </g>
  </g>
</svg>