<?xml version="1.0" encoding="UTF-8"?>
<svg id="_레이어_2" data-name="레이어 2" xmlns="http://www.w3.org/2000/svg" viewBox="0 0 65.65 58.2">
  <defs>
    <style>
      .cls-1 {
        fill: #fff;
      }

      .cls-2 {
        opacity: .2;
      }

      .cls-2, .cls-3 {
        fill: #052277;
      }

      .cls-4 {
        fill: #03c75a;
      }

      .cls-5 {
        fill: #2c7dff;
      }
    </style>
  </defs>
  <g id="_레이어_1-2" data-name="레이어 1">
    <g>
      <path class="cls-1" d="m41.89,58.2c-3,0-5.65-1.8-6.75-4.59l-2.31-5.84-2.31,5.84c-1.1,2.79-3.75,4.59-6.75,4.59H7.26c-2.41,0-4.65-1.19-6.01-3.18-1.35-1.99-1.63-4.52-.74-6.76L17.51,5.38v-.2l.41-.83c.03-.07.06-.14.1-.21l.09-.19.21-.38.26-.41.11-.15c.04-.05.11-.14.18-.24l.11-.13s.21-.24.24-.27l.06-.07c.1-.1.17-.17.23-.24l.1-.1.17-.16.03-.03c.16-.14.28-.23.41-.33l.18-.13.11-.08.3-.19c.16-.1.34-.2.53-.29,0,0,.31-.14.37-.17.13-.06.28-.11.43-.17.07-.02.14-.05.22-.07l.14-.04c.12-.04.24-.07.35-.1.14-.04.31-.07.48-.1l.12-.02h.08s.24-.05.24-.05h.27c.19-.03.36-.03.54-.03h16.5c.18,0,.35,0,.53.02h.14s.15.01.15.01l.3.05h.11s.1.04.1.04c.14.03.27.06.41.09.09.02.21.05.32.09l.12.03c.09.03.17.05.24.08.16.06.29.11.43.16.08.03.37.17.37.17.2.1.38.2.56.31.04.02.31.2.31.2.11.08.2.14.29.21.11.08.24.19.37.3.05.04.11.1.17.15l.06.06.13.13s.1.1.17.17l.11.12.14.16.16.2.15.15.25.41.13.17.15.3.07.14.1.19c.04.09.18.38.18.38l.07.2,17.27,43.56c.89,2.24.61,4.77-.74,6.76-1.35,1.99-3.6,3.18-6.01,3.18h-16.5Z"/>
      <g>
        <path class="cls-4" d="m41.89,53.76h16.5c2,0,3.36-2.01,2.63-3.87L43.7,6.22c-.43-1.08-1.47-1.78-2.63-1.78h-16.5c-2,0-3.36,2.01-2.63,3.87l17.31,43.67c.43,1.08,1.47,1.78,2.63,1.78Z"/>
        <path class="cls-2" d="m43.7,6.22s0,0,0,0c0,0,0,.01,0,.02h0Z"/>
        <path class="cls-2" d="m43.42,5.69s.01.02.02.03c0,0-.01-.02-.02-.03Z"/>
        <path class="cls-2" d="m43.57,5.94s0,0,0,0c0,0,0,0,0,0Z"/>
        <path class="cls-2" d="m43.72,6.28c.23.62.25,1.34-.02,2.03l-10.87,27.43,1.23,3.09,15.51-17.83-5.84-14.72Z"/>
        <path class="cls-2" d="m43.24,5.45s.02.02.03.03c0-.01-.02-.02-.03-.03Z"/>
        <path class="cls-2" d="m43.06,5.25s0,0,0,0c0,0,0,0,0,0Z"/>
        <path class="cls-5" d="m23.76,53.76H7.26c-2,0-3.36-2.01-2.63-3.87L21.95,6.22c.43-1.08,1.47-1.78,2.63-1.78h16.5c2,0,3.36,2.01,2.63,3.87l-17.31,43.67c-.43,1.08-1.47,1.78-2.63,1.78Z"/>
        <path class="cls-3" d="m43.72,6.28l-.02-.05s0-.01,0-.02c-.02-.06-.05-.11-.07-.17,0-.01-.01-.03-.02-.04-.02-.05-.05-.09-.07-.14,0-.01-.02-.03-.02-.04-.03-.05-.07-.11-.1-.16-.01-.02-.02-.03-.04-.05-.03-.04-.05-.07-.08-.11-.01-.02-.03-.03-.04-.05-.03-.04-.06-.07-.09-.11-.01-.01-.02-.02-.03-.03-.42-.45-.99-.75-1.61-.85,0,0-.01,0-.02,0-.06,0-.12-.02-.18-.02-.01,0-.02,0-.04,0-.07,0-.14,0-.21,0,0,0,0,0,0,0h-16.5s0,0,0,0c-.07,0-.14,0-.21,0-.01,0-.02,0-.04,0-.06,0-.12.01-.18.02,0,0-.01,0-.02,0-.62.1-1.19.4-1.61.85-.01.01-.02.02-.03.03-.03.03-.06.07-.09.11-.01.02-.03.03-.04.05-.03.03-.05.07-.08.11-.01.02-.02.03-.04.05-.04.05-.07.1-.1.16,0,.01-.02.03-.02.04-.03.04-.05.09-.07.14,0,.01-.01.03-.02.04-.03.05-.05.11-.07.17,0,0,0,.01,0,.02l-.02.05c-.23.62-.25,1.34.02,2.03l10.87,27.43,10.87-27.43c.27-.69.26-1.4.02-2.03Z"/>
      </g>
    </g>
  </g>
</svg>