<?xml version="1.0" encoding="UTF-8"?>
<svg id="_레이어_2" data-name="레이어 2" xmlns="http://www.w3.org/2000/svg" viewBox="0 0 363.36 102.53">
  <defs>
    <style>
      .cls-1 {
        fill: #fff;
      }

      .cls-2 {
        fill: #3f3f3f;
      }

      .cls-3 {
        opacity: .2;
      }

      .cls-3, .cls-4 {
        fill: #052277;
      }

      .cls-5 {
        font-family: GreycliffCF-Heavy, 'Greycliff CF';
        font-size: 53.37px;
        font-weight: 800;
      }

      .cls-5, .cls-6 {
        fill: #03c75a;
      }

      .cls-7 {
        letter-spacing: 0em;
      }

      .cls-8 {
        fill: #2c7dff;
      }
    </style>
  </defs>
  <g id="_레이어_1-2" data-name="레이어 1">
    <g>
      <path class="cls-2" d="m132.17,28.48l-7.42-13.85v13.69c0,.29-.19.48-.48.48h-4.09c-.29,0-.48-.19-.48-.48V6.89c0-.29.19-.48.48-.48h4.77c.26,0,.45.1.58.32l7.42,13.85V6.89c0-.29.19-.48.48-.48h4.09c.29,0,.48.19.48.48v21.43c0,.29-.19.48-.48.48h-4.77c-.26,0-.45-.1-.58-.32Z"/>
      <path class="cls-2" d="m140.29,28.26l7.42-21.46c.1-.26.35-.38.61-.38h4.35c.26,0,.51.13.61.38l7.42,21.46c.13.32-.03.54-.38.54h-4.29c-.26,0-.45-.1-.54-.38l-.96-3.01h-8.06l-.96,3.01c-.1.29-.29.38-.54.38h-4.25c-.35,0-.54-.22-.42-.54Zm12.79-7.32l-2.59-8.09-2.59,8.09h5.18Z"/>
      <path class="cls-2" d="m165.46,28.41l-7.42-21.46c-.13-.32.06-.54.42-.54h4.25c.26,0,.45.1.54.38l4.99,15.58,4.99-15.58c.1-.29.29-.38.54-.38h4.29c.35,0,.51.22.38.54l-7.42,21.46c-.1.26-.35.38-.61.38h-4.35c-.26,0-.51-.13-.61-.38Z"/>
      <path class="cls-2" d="m180.59,28.32V6.89c0-.29.19-.48.48-.48h11.54c.29,0,.48.19.48.48v3.52c0,.29-.19.48-.48.48h-6.97v4.38h6.56c.29,0,.48.19.48.48v3.52c0,.29-.19.48-.48.48h-6.56v4.57h6.94c.29,0,.51.19.51.48v3.52c0,.29-.22.48-.51.48h-11.51c-.29,0-.48-.19-.48-.48Z"/>
      <path class="cls-2" d="m207.1,28.48l-4.57-7.39h-1.15v7.23c0,.29-.19.48-.48.48h-4.09c-.29,0-.48-.19-.48-.48V6.89c0-.29.19-.48.48-.48h6.88c5.41,0,7.96,3.01,7.96,7.36,0,3.17-1.38,5.63-4.22,6.72l4.96,7.74c.22.35.06.58-.32.58h-4.38c-.26,0-.45-.1-.58-.32Zm-3.55-11.87c1.7,0,3.26-.54,3.26-2.85s-1.57-2.88-3.26-2.88h-2.17v5.73h2.17Z"/>
      <path class="cls-2" d="m225.84,28.41l-6.3-21.46c-.13-.32.03-.54.38-.54h4.25c.26,0,.48.1.54.38l4.09,15.1,4.48-15.1c.1-.29.26-.38.54-.38h3.93c.29,0,.45.1.54.38l4.48,15.1,4.09-15.1c.06-.29.29-.38.54-.38h4.29c.35,0,.48.22.38.54l-6.33,21.46c-.06.26-.35.38-.64.38h-4.25c-.32,0-.58-.13-.64-.38l-4.41-15.61-4.45,15.61c-.06.26-.32.38-.64.38h-4.25c-.29,0-.58-.13-.64-.38Z"/>
      <path class="cls-2" d="m252.32,17.7c0-6.49,5.18-11.55,11.51-11.55s11.55,5.05,11.55,11.55-5.18,11.51-11.55,11.51-11.51-5.05-11.51-11.51Zm11.51,6.56c3.65,0,6.4-2.85,6.4-6.56s-2.75-6.59-6.4-6.59-6.4,2.81-6.4,6.59,2.78,6.56,6.4,6.56Z"/>
      <path class="cls-2" d="m289.07,28.48l-4.57-7.39h-1.15v7.23c0,.29-.19.48-.48.48h-4.09c-.29,0-.48-.19-.48-.48V6.89c0-.29.19-.48.48-.48h6.88c5.41,0,7.96,3.01,7.96,7.36,0,3.17-1.38,5.63-4.22,6.72l4.96,7.74c.22.35.06.58-.32.58h-4.38c-.26,0-.45-.1-.58-.32Zm-3.55-11.87c1.7,0,3.26-.54,3.26-2.85s-1.57-2.88-3.26-2.88h-2.17v5.73h2.17Z"/>
      <path class="cls-2" d="m297.03,28.32V6.89c0-.29.19-.48.48-.48h4.09c.29,0,.48.19.48.48v9.34l6.97-9.56c.16-.19.35-.26.58-.26h4.99c.42,0,.45.29.26.58l-7.39,9.31,8.28,11.93c.22.32.1.58-.29.58h-4.77c-.26,0-.42-.06-.58-.29l-5.76-8.25-2.3,2.91v5.15c0,.29-.19.48-.48.48h-4.09c-.29,0-.48-.19-.48-.48Z"/>
      <path class="cls-2" d="m316.54,25.63c-.16-.19-.16-.45.06-.7l2.14-2.43c.19-.22.45-.32.74-.1,1.47,1.44,2.69,2.14,4.38,2.14s2.78-.64,2.78-2.05c0-1.31-.96-1.73-2.37-2.37l-2.72-1.28c-2.37-1.06-4.61-2.75-4.61-6.24,0-4.19,3.17-6.46,7.07-6.46,2.65,0,4.86,1.06,6.72,2.97.19.19.22.48.03.74l-2.11,2.53c-.16.22-.45.32-.67.16-1.44-1.21-2.49-1.76-3.81-1.76-1.47,0-2.33.74-2.33,1.89,0,1.22.9,1.6,2.53,2.37l2.27,1.02c2.37,1.12,4.93,2.59,4.93,6.43,0,4.67-3.84,6.68-7.61,6.68-3.55,0-6.08-1.76-7.42-3.55Z"/>
    </g>
    <text class="cls-5" transform="translate(117.58 84.44)"><tspan class="cls-7" x="0" y="0">A</tspan><tspan x="37.3" y="0">PI</tspan></text>
    <g>
      <path class="cls-6" d="m231.1,77.99c-2.83-1.69-6.33-5.57-7.34-9.24-.93,3.88-4.35,8.23-7.72,10.21l-2.87-3.08c5.15-3.33,8.31-8.1,8.4-15.78h-6.96v-3.71h18.14v3.71h-6.71c.13,7.47,3.38,12.19,7.72,14.64l-2.66,3.25Zm-12.53-24.55v-3.71h10.46v3.71h-10.46Zm16.92,31.14v-16.79h-5.1v-3.84h5.1v-16.67h4.35v37.3h-4.35Zm7.81,1.9v-40h4.39v40h-4.39Z"/>
      <path class="cls-6" d="m252.57,56.43v-3.63h23.12v3.63h-23.12Zm11.56,14.64c-5.36,0-9.45-2.62-9.45-6.54s4.05-6.67,9.45-6.67,9.37,2.66,9.37,6.67-4.05,6.54-9.37,6.54Zm-5.78-20.55v-3.67h11.69v3.67h-11.69Zm5.78,10.8c-2.66,0-4.98,1.18-4.98,3.21s2.36,3.12,4.98,3.12,4.89-1.18,4.89-3.12-2.32-3.21-4.89-3.21Zm-4.51,24.6v-12.83h26.12v12.83h-26.12Zm21.52-9.24h-16.92v5.61h16.92v-5.61Zm-6.12-13.33v-3.84h6.12v-13.04h4.6v24.6h-4.6v-7.72h-6.12Z"/>
      <path class="cls-6" d="m291.3,59.55v-3.71h23.25v3.71h-23.25Zm11.69,18.99c-5.74,0-9.58-3.59-9.58-8.52s3.84-8.52,9.58-8.52,9.54,3.63,9.54,8.52-3.84,8.52-9.54,8.52Zm-6.08-29.7h12.15v3.75h-12.15v-3.75Zm6.08,16.41c-2.91,0-4.98,1.94-4.98,4.77s2.07,4.73,4.98,4.73c3.12,0,4.98-1.94,4.98-4.73s-2.11-4.77-4.98-4.77Zm19.66-2.32h6.2v3.84h-6.2v19.7h-4.6v-40h4.6v16.45Z"/>
      <path class="cls-6" d="m351.08,50.69c-.25,12.4-6.46,21.98-17.97,28.27l-2.87-3.5c9.2-4.18,15.15-12.57,15.91-20.97h-13.58v-3.8h18.52Zm7.68,35.78v-40h4.6v40h-4.6Z"/>
    </g>
    <g>
      <path class="cls-1" d="m65.73,90.04c-3.99,0-7.52-2.4-8.99-6.11l-5.68-14.34-5.68,14.34c-1.47,3.71-5,6.11-8.99,6.11H9.67c-3.21,0-6.2-1.58-8-4.24-1.8-2.65-2.17-6.02-.99-9L28.34,7.03v-.23l.47-.95c.05-.11.1-.23.15-.34l.14-.28.27-.49.05-.08c.06-.1.12-.2.19-.3l.11-.17s.12-.16.14-.19c.06-.09.15-.21.25-.33l.16-.19s.26-.3.3-.34l.1-.1c.11-.12.2-.2.28-.28.01-.01.13-.13.13-.13l.23-.21s.09-.07.1-.08c.17-.15.34-.28.51-.41.09-.06.17-.12.24-.18l.08-.06s.38-.24.46-.29c.22-.13.47-.27.72-.4.06-.03.26-.12.26-.12.08-.04.15-.07.23-.1.18-.08.37-.15.57-.22.09-.03.19-.07.3-.1l.19-.06c.16-.05.3-.09.45-.12.2-.05.42-.1.64-.13l.1-.02.12-.02.31-.05h.14s.2-.02.27-.03c.24-.02.48-.03.71-.03h26.71c.24,0,.47,0,.7.03h.09s.16.02.19.03h.16l.31.06.16.02.11.03c.2.04.4.08.59.13.13.03.28.07.42.12l.19.06c.09.03.18.06.27.09.22.08.41.15.58.22.09.04.17.08.26.12,0,0,.25.12.25.12.24.12.49.25.73.4.07.04.16.1.25.16.06.04.11.07.17.11.14.1.26.18.38.27.15.11.33.26.5.4.08.07.16.13.23.2l.09.09s.11.11.12.12c.1.09.18.18.26.26l.16.18.19.22.21.26s.04.05.06.08l.16.16.28.46s.04.06.06.09l.14.19.16.32s.15.27.15.27l.13.25c.06.12.11.23.16.35l.08.16.07.19,27.99,70.61c1.18,2.98.81,6.35-.99,9-1.8,2.65-4.79,4.24-8,4.24h-26.7Z"/>
      <g>
        <path class="cls-6" d="m65.73,84.94h26.7c3.23,0,5.44-3.26,4.25-6.26L68.66,7.99c-.69-1.74-2.38-2.89-4.25-2.89h-26.7c-3.23,0-5.44,3.26-4.25,6.26l28.03,70.7c.69,1.74,2.38,2.89,4.25,2.89Z"/>
        <path class="cls-3" d="m68.66,7.99s0,0,0,0c0,0,0,.02.01.03v-.02Z"/>
        <path class="cls-3" d="m68.2,7.12s.02.03.03.05c-.01-.02-.02-.03-.03-.05Z"/>
        <path class="cls-3" d="m68.45,7.54s0,.01,0,.02c0,0,0-.01,0-.02Z"/>
        <path class="cls-3" d="m68.69,8.08c.38,1.01.41,2.16-.04,3.28l-17.6,44.4,1.99,5.01,25.1-28.86-9.45-23.83Z"/>
        <path class="cls-3" d="m67.91,6.74s.03.03.04.05c-.01-.02-.03-.03-.04-.05Z"/>
        <path class="cls-3" d="m67.62,6.42s0,0,0,0c0,0,0,0,0,0Z"/>
        <path class="cls-8" d="m36.38,84.94H9.67c-3.23,0-5.44-3.26-4.25-6.26L33.45,7.99c.69-1.74,2.38-2.89,4.25-2.89h26.7c3.23,0,5.44,3.26,4.25,6.26l-28.03,70.7c-.69,1.74-2.38,2.89-4.25,2.89Z"/>
        <path class="cls-4" d="m68.69,8.08l-.03-.07s0-.02-.01-.03c-.04-.09-.08-.18-.12-.27-.01-.02-.02-.05-.03-.07-.04-.07-.08-.15-.12-.22-.01-.02-.03-.05-.04-.07-.05-.09-.11-.17-.16-.26-.02-.03-.04-.05-.06-.08-.04-.06-.08-.12-.13-.17-.02-.03-.05-.06-.07-.08-.05-.06-.1-.12-.15-.17-.02-.02-.03-.04-.05-.06-.69-.72-1.6-1.21-2.61-1.37-.01,0-.02,0-.03,0-.09-.01-.19-.02-.28-.03-.02,0-.04,0-.06,0-.11,0-.22-.01-.33-.01,0,0,0,0,0,0h-26.7s0,0,0,0c-.11,0-.22,0-.33.01-.02,0-.04,0-.06,0-.1,0-.19.02-.28.03-.01,0-.02,0-.03,0-1,.16-1.92.65-2.61,1.37-.02.02-.03.04-.05.06-.05.06-.1.11-.15.17-.02.03-.05.06-.07.08-.04.06-.09.11-.13.17-.02.03-.04.05-.06.08-.06.08-.11.17-.16.26-.01.02-.03.05-.04.07-.04.07-.08.15-.12.22-.01.02-.02.05-.03.07-.04.09-.08.18-.12.27,0,0,0,.02-.01.03l-.03.07c-.38,1.01-.41,2.16.04,3.28l17.6,44.4,17.6-44.4c.44-1.12.41-2.27.04-3.28Z"/>
      </g>
    </g>
  </g>
</svg>