<?xml version="1.0" encoding="UTF-8"?>
<svg id="_레이어_2" data-name="레이어 2" xmlns="http://www.w3.org/2000/svg" viewBox="0 0 1514.18 162.16">
  <defs>
    <style>
      .cls-1 {
        fill: #fff;
      }

      .cls-2 {
        fill: #1b4577;
      }

      .cls-3 {
        fill: #2c7dff;
      }

      .cls-4 {
        fill: #474747;
      }

      .cls-5 {
        fill: #052277;
      }
    </style>
  </defs>
  <g id="_레이어_1-2" data-name="레이어 1">
    <path class="cls-1" d="m0,145.25l33.32-45.84c-16.14-9.49-26.34-27.08-26.34-46.04C6.98,23.94,30.92,0,60.34,0h104.61l-33.32,45.84c16.14,9.49,26.34,27.08,26.34,46.04,0,29.43-23.94,53.37-53.37,53.37H0Zm104.63-21c17.84,0,32.35-14.52,32.35-32.37,0-14.77-9.97-27.66-24.24-31.34l-14.94-3.86,25.93-35.68h-63.4c-17.84,0-32.35,14.52-32.35,32.37,0,14.77,9.97,27.66,24.24,31.34l14.94,3.86-25.93,35.68h63.4Z"/>
    <g>
      <path class="cls-3" d="m104.25,49.02h.01c.06,0,.12,0,.17,0,.06,0,.12,0,.17,0,3.71,0,7.32.47,10.75,1.36l28.98-39.87H60.69c-.06,0-.12,0-.17,0-.06,0-.12,0-.17,0-23.68,0-42.87,19.19-42.87,42.87,0,19.96,13.64,36.74,32.12,41.51l18.47-25.42c7.96-11.38,20.88-20.31,36.18-20.44Z"/>
      <path class="cls-2" d="m115.36,50.37l-18.47,25.42c-7.96,11.38-20.88,20.31-36.18,20.44h-.01c-.06,0-.12,0-.17,0-.06,0-.12,0-.17,0-3.71,0-7.32-.47-10.75-1.36l-28.98,39.87h83.65c.06,0,.12,0,.17,0,.06,0,.12,0,.17,0,23.68,0,42.87-19.19,42.87-42.87,0-19.96-13.64-36.74-32.12-41.51Z"/>
      <path class="cls-5" d="m60.52,96.24c.06,0,.12,0,.17,0h.01c15.31-.13,28.22-9.06,36.18-20.45l18.47-25.42c-3.44-.89-7.04-1.36-10.75-1.36-.06,0-.12,0-.17,0-.06,0-.12,0-.17,0h-.01c-15.31.13-28.22,9.06-36.18,20.45l-18.47,25.42c3.44.89,7.04,1.36,10.75,1.36.06,0,.12,0,.17,0Z"/>
    </g>
    <g>
      <path class="cls-4" d="m196.84,128.38V18c0-1.48.99-2.47,2.47-2.47h33.94c38.55,0,58.82,25.21,58.82,57.66s-20.26,57.66-58.82,57.66h-33.94c-1.48,0-2.47-.99-2.47-2.47Zm36.08-18.45c23.39,0,35.26-13.02,35.26-36.74s-11.86-36.74-35.26-36.74h-12.52v73.48h12.52Z"/>
      <path class="cls-4" d="m308.05,23.11c0-6.92,5.44-12.52,12.69-12.52s12.52,5.6,12.52,12.52-5.27,12.69-12.52,12.69-12.69-5.6-12.69-12.69Zm1.15,29.49c0-1.48.99-2.47,2.47-2.47h17.96c1.48,0,2.47.99,2.47,2.47v75.78c0,1.48-.99,2.47-2.47,2.47h-17.96c-1.48,0-2.47-.99-2.47-2.47V52.6Z"/>
      <path class="cls-4" d="m347.75,90.49c0-23.89,15.65-42.34,38.39-42.34,11.2,0,19.44,4.12,24.88,11.37V15.53c0-1.48.99-2.47,2.47-2.47h17.96c1.48,0,2.47.99,2.47,2.47v112.85c0,1.48-1.15,2.47-2.64,2.47h-15.98c-1.48,0-2.47-.99-2.47-2.47l-.33-8.9c-5.6,8.24-14.33,13.34-26.36,13.34-22.74,0-38.39-18.29-38.39-42.34Zm43.16,21.58c12.03,0,20.43-8.57,20.43-21.58s-8.4-21.58-20.43-21.58-20.92,8.73-20.92,21.58,8.9,21.58,20.92,21.58Z"/>
      <path class="cls-4" d="m452.53,23.11c0-6.92,5.44-12.52,12.69-12.52s12.52,5.6,12.52,12.52-5.27,12.69-12.52,12.69-12.69-5.6-12.69-12.69Zm1.15,29.49c0-1.48.99-2.47,2.47-2.47h17.96c1.48,0,2.47.99,2.47,2.47v75.78c0,1.48-.99,2.47-2.47,2.47h-17.96c-1.48,0-2.47-.99-2.47-2.47V52.6Z"/>
      <path class="cls-4" d="m496.36,128.38V52.6c0-1.48.99-2.47,2.47-2.47h17.13c1.48,0,2.47.66,2.47,2.64l.49,8.57c4.45-7.58,11.7-13.18,22.74-13.18,10.38,0,18.45,4.94,22.9,14.33,4.45-8.24,12.36-14.33,24.88-14.33,17.3,0,27.84,11.86,27.84,32.95v47.28c0,1.48-.99,2.47-2.47,2.47h-17.79c-1.48,0-2.47-.99-2.47-2.47v-42.34c0-11.04-3.95-16.97-12.85-16.97s-13.51,5.93-13.51,16.97v42.34c0,1.48-.99,2.47-2.47,2.47h-17.63c-1.65,0-2.64-.99-2.64-2.47v-42.34c0-11.04-4.12-16.97-12.85-16.97s-13.51,5.93-13.51,16.97v42.34c0,1.48-.99,2.47-2.47,2.47h-17.79c-1.48,0-2.47-.99-2.47-2.47Z"/>
      <path class="cls-4" d="m632.77,128.06l38.55-110.55c.49-1.32,1.81-1.98,3.13-1.98h19.93c1.32,0,2.64.66,3.13,1.98l38.55,110.55c.66,1.65-.33,2.8-2.14,2.8h-19.44c-1.32,0-2.31-.49-2.8-1.98l-5.6-16.97h-43.49l-5.6,16.97c-.49,1.48-1.48,1.98-2.8,1.98h-19.44c-1.81,0-2.64-1.15-1.98-2.8Zm66.56-37.07l-14.99-45.8-14.99,45.8h29.98Z"/>
      <path class="cls-4" d="m751.55,159.69V52.6c0-1.48.99-2.47,2.47-2.47h16.31c1.48,0,2.47.99,2.47,2.47l.33,8.9c5.44-8.4,14-13.34,26.36-13.34,22.57,0,38.22,18.45,38.22,42.34s-15.65,42.34-38.22,42.34c-11.04,0-19.44-4.28-25.04-11.53v38.39c0,1.48-.99,2.47-2.47,2.47h-17.96c-1.48,0-2.47-.99-2.47-2.47Zm43.16-47.61c11.86,0,20.76-8.57,20.76-21.58s-8.9-21.58-20.76-21.58-20.59,8.57-20.59,21.58,8.4,21.58,20.59,21.58Z"/>
      <path class="cls-4" d="m852.22,23.11c0-6.92,5.44-12.52,12.69-12.52s12.52,5.6,12.52,12.52-5.27,12.69-12.52,12.69-12.69-5.6-12.69-12.69Zm1.15,29.49c0-1.48.99-2.47,2.47-2.47h17.96c1.48,0,2.47.99,2.47,2.47v75.78c0,1.48-.99,2.47-2.47,2.47h-17.96c-1.48,0-2.47-.99-2.47-2.47V52.6Z"/>
      <path class="cls-3" d="m894.39,114.88c-.82-1.15-.82-2.31.33-3.62l9.56-11.04c1.15-1.32,2.47-1.48,3.79-.33,7.25,7.41,13.84,11.37,23.23,11.37s16.15-4.12,16.15-12.36c0-7.74-5.77-10.54-13.84-14.17l-14-6.59c-12.19-5.6-23.06-14.33-23.06-31.47,0-20.92,15.98-32.46,35.59-32.46,13.67,0,24.71,5.44,33.77,15.16,1.15,1.15,1.15,2.47.17,3.79l-9.39,11.37c-.99,1.32-2.31,1.65-3.62.66-7.08-6.26-12.85-9.39-20.1-9.39-8.4,0-13.67,4.12-13.67,11.04s4.61,9.39,13.51,13.51l11.86,5.44c12.52,5.93,25.7,13.67,25.7,33.12,0,23.23-18.95,33.94-38.55,33.94-17.96,0-30.64-8.73-37.4-17.96Z"/>
      <path class="cls-4" d="m983.36,90.49c0-23.89,15.65-42.34,38.39-42.34,12.19,0,20.92,4.94,26.36,13.34l.33-8.9c0-1.48.99-2.47,2.47-2.47h16.15c1.48,0,2.47.99,2.47,2.47v75.78c0,1.48-1.15,2.47-2.64,2.47h-15.98c-1.48,0-2.47-.99-2.47-2.47l-.33-8.9c-5.6,8.24-14.33,13.34-26.36,13.34-22.74,0-38.39-18.29-38.39-42.34Zm43.16,21.58c12.03,0,20.43-8.57,20.43-21.58s-8.4-21.58-20.43-21.58-20.92,8.73-20.92,21.58,8.9,21.58,20.92,21.58Z"/>
      <path class="cls-4" d="m1089.13,128.38V52.6c0-1.48.99-2.47,2.47-2.47h17.13c1.48,0,2.47.66,2.47,2.64l.49,8.57c4.45-7.58,11.7-13.18,22.74-13.18,10.38,0,18.45,4.94,22.9,14.33,4.45-8.24,12.36-14.33,24.88-14.33,17.3,0,27.84,11.86,27.84,32.95v47.28c0,1.48-.99,2.47-2.47,2.47h-17.79c-1.48,0-2.47-.99-2.47-2.47v-42.34c0-11.04-3.95-16.97-12.85-16.97s-13.51,5.93-13.51,16.97v42.34c0,1.48-.99,2.47-2.47,2.47h-17.63c-1.65,0-2.64-.99-2.64-2.47v-42.34c0-11.04-4.12-16.97-12.85-16.97s-13.51,5.93-13.51,16.97v42.34c0,1.48-.99,2.47-2.47,2.47h-17.79c-1.48,0-2.47-.99-2.47-2.47Z"/>
      <path class="cls-4" d="m1229.49,159.69V52.6c0-1.48.99-2.47,2.47-2.47h16.31c1.48,0,2.47.99,2.47,2.47l.33,8.9c5.44-8.4,14-13.34,26.36-13.34,22.57,0,38.22,18.45,38.22,42.34s-15.65,42.34-38.22,42.34c-11.04,0-19.44-4.28-25.04-11.53v38.39c0,1.48-.99,2.47-2.47,2.47h-17.96c-1.48,0-2.47-.99-2.47-2.47Zm43.16-47.61c11.86,0,20.76-8.57,20.76-21.58s-8.9-21.58-20.76-21.58-20.59,8.57-20.59,21.58,8.4,21.58,20.59,21.58Z"/>
      <path class="cls-4" d="m1331.14,128.38V15.53c0-1.48.99-2.47,2.47-2.47h17.96c1.48,0,2.47.99,2.47,2.47v112.85c0,1.48-.99,2.47-2.47,2.47h-17.96c-1.48,0-2.47-.99-2.47-2.47Z"/>
      <path class="cls-4" d="m1369.53,90.16c0-23.72,16.64-42.01,41.52-42.01s38.72,18.12,38.72,38.55c0,7.91-1.81,12.36-8.9,12.36h-49.09c2.47,10.21,10.87,15.82,23.89,15.82,6.26,0,12.19-1.15,18.78-4.94,1.15-.66,1.98-.49,2.8.66l6.1,8.4c.82,1.15.66,2.31-.82,3.62-6.92,6.92-17.3,10.21-28.67,10.21-26.52,0-44.32-18.29-44.32-42.67Zm59.97-7.08c-1.32-10.71-8.57-16.15-18.29-16.15s-17.79,5.44-19.77,16.15h38.06Z"/>
      <path class="cls-4" d="m1465.08,128.38V52.6c0-1.48.99-2.47,2.47-2.47h17.13c1.48,0,2.31.66,2.47,2.64l.66,10.38c2.8-8.57,7.91-14.99,17.46-14.99,3.79,0,6.1.99,7.41,1.98,1.15.82,1.48,1.81,1.48,3.3v14.5c0,1.98-1.15,2.47-3.29,1.98-1.81-.49-3.62-.82-5.93-.82-11.2,0-17.13,7.41-17.13,18.95v40.36c0,1.48-.99,2.47-2.47,2.47h-17.79c-1.48,0-2.47-.99-2.47-2.47Z"/>
    </g>
  </g>
</svg>