<?xml version="1.0" encoding="UTF-8"?>
<svg id="_레이어_2" data-name="레이어 2" xmlns="http://www.w3.org/2000/svg" viewBox="0 0 835.07 58.2">
  <defs>
    <style>
      .cls-1 {
        fill: #fff;
      }

      .cls-2 {
        fill: #3f3f3f;
      }

      .cls-3 {
        opacity: .2;
      }

      .cls-3, .cls-4 {
        fill: #052277;
      }

      .cls-5 {
        fill: #03c75a;
      }

      .cls-6 {
        fill: #2c7dff;
      }
    </style>
  </defs>
  <g id="_레이어_1-2" data-name="레이어 1">
    <g>
      <path class="cls-2" d="m116.33,53.01l-15.08-28.33v27.9c0,.63-.49,1.13-1.13,1.13h-10.08c-.63,0-1.06-.49-1.06-1.13V5.51c0-.63.42-1.13,1.06-1.13h11.63c.56,0,.99.21,1.27.7l15.15,28.47V5.51c0-.63.42-1.13,1.06-1.13h10.08c.63,0,1.13.49,1.13,1.13v47.07c0,.63-.49,1.13-1.13,1.13h-11.63c-.56,0-.99-.21-1.27-.7Z"/>
      <path class="cls-2" d="m134.8,52.51l16.21-47.28c.21-.56.78-.85,1.34-.85h10.64c.56,0,1.2.28,1.41.85l16.21,47.28c.28.7-.14,1.2-.92,1.2h-10.5c-.56,0-1.06-.21-1.27-.85l-1.83-5.92h-16.84l-1.83,5.92c-.21.63-.63.85-1.2.85h-10.5c-.77,0-1.2-.49-.92-1.2Zm27.9-16.42l-5-16.14-5.07,16.14h10.08Z"/>
      <path class="cls-2" d="m190.4,52.87l-16.21-47.28c-.28-.71.14-1.2.92-1.2h10.5c.56,0,.99.21,1.2.85l10.29,32.84,10.22-32.84c.21-.63.7-.85,1.27-.85h10.5c.78,0,1.2.49.92,1.2l-16.21,47.28c-.21.56-.85.85-1.41.85h-10.64c-.56,0-1.13-.28-1.34-.85Z"/>
      <path class="cls-2" d="m224.16,52.58V5.51c0-.63.42-1.13,1.06-1.13h25.79c.63,0,1.06.49,1.06,1.13v8.6c0,.63-.42,1.13-1.06,1.13h-14.59v8.24h13.67c.63,0,1.13.49,1.13,1.13v8.67c0,.63-.49,1.06-1.13,1.06h-13.67v8.53h14.52c.63,0,1.13.49,1.13,1.13v8.6c0,.63-.49,1.13-1.13,1.13h-25.72c-.63,0-1.06-.49-1.06-1.13Z"/>
      <path class="cls-2" d="m282.23,53.01l-9.72-15.93h-1.55v15.5c0,.63-.49,1.13-1.13,1.13h-10.08c-.63,0-1.06-.49-1.06-1.13V5.51c0-.63.42-1.13,1.06-1.13h15.5c12.12,0,17.83,6.62,17.83,16.35,0,6.83-2.82,12.19-8.81,14.73l10.64,16.98c.49.78.14,1.27-.7,1.27h-10.71c-.56,0-.99-.21-1.27-.7Zm-7.26-26.78c3.24,0,6.41-.85,6.41-5.5s-3.17-5.5-6.41-5.5h-4.02v10.99h4.02Z"/>
      <path class="cls-2" d="m323.88,52.87l-13.81-47.28c-.21-.71.07-1.2.85-1.2h10.5c.56,0,1.13.21,1.2.85l8.39,31.78,9.16-31.78c.21-.63.56-.85,1.27-.85h9.51c.7,0,1.06.21,1.27.85l9.16,31.78,8.39-31.78c.14-.63.63-.85,1.2-.85h10.5c.78,0,1.06.49.85,1.2l-13.81,47.28c-.07.49-.7.85-1.41.85h-10.43c-.63,0-1.34-.35-1.41-.85l-9.02-33.05-9.09,33.05c-.07.49-.78.85-1.41.85h-10.43c-.7,0-1.34-.35-1.41-.85Z"/>
      <path class="cls-2" d="m382.3,29.26c0-14.3,11.49-25.44,25.44-25.44s25.44,11.13,25.44,25.44-11.49,25.37-25.44,25.37-25.44-11.13-25.44-25.37Zm25.44,13.32c7.4,0,12.97-5.71,12.97-13.32s-5.57-13.39-12.97-13.39-13.04,5.71-13.04,13.39,5.64,13.32,13.04,13.32Z"/>
      <path class="cls-2" d="m462.63,53.01l-9.72-15.93h-1.55v15.5c0,.63-.49,1.13-1.13,1.13h-10.08c-.63,0-1.06-.49-1.06-1.13V5.51c0-.63.42-1.13,1.06-1.13h15.5c12.12,0,17.83,6.62,17.83,16.35,0,6.83-2.82,12.19-8.81,14.73l10.64,16.98c.49.78.14,1.27-.7,1.27h-10.71c-.56,0-.99-.21-1.27-.7Zm-7.26-26.78c3.24,0,6.41-.85,6.41-5.5s-3.17-5.5-6.41-5.5h-4.02v10.99h4.02Z"/>
      <path class="cls-2" d="m480.75,52.58V5.51c0-.63.42-1.13,1.06-1.13h10.08c.63,0,1.13.49,1.13,1.13v19.38l14.37-19.94c.35-.42.78-.56,1.27-.56h12.26c.92,0,.99.7.56,1.27l-16.14,20.29,18.11,26.49c.49.71.21,1.27-.63,1.27h-11.77c-.56,0-.92-.14-1.27-.63l-11.91-17.55-4.86,6.06v10.99c0,.63-.49,1.13-1.13,1.13h-10.08c-.63,0-1.06-.49-1.06-1.13Z"/>
      <path class="cls-2" d="m524.79,46.66c-.35-.42-.35-.99.07-1.55l5.29-5.99c.49-.56.99-.78,1.62-.28,3.38,3.1,5.92,4.51,9.37,4.51,3.1,0,5.43-.99,5.43-3.8,0-2.4-1.76-3.1-4.51-4.3l-5.99-2.75c-5.21-2.4-10.43-6.13-10.43-14.09,0-9.51,7.19-14.59,15.92-14.59,5.92,0,10.78,2.25,15.08,6.62.42.35.49.99.07,1.55l-5.21,6.27c-.35.56-.92.77-1.48.42-3.17-2.54-5.43-3.67-8.03-3.67-2.96,0-4.51,1.48-4.51,3.52,0,2.54,1.9,3.1,5.43,4.72l4.79,2.11c5.14,2.4,10.78,5.71,10.78,14.23,0,10.64-8.88,14.94-17.05,14.94s-13.67-3.95-16.63-7.89Z"/>
      <path class="cls-5" d="m573.91,52.51l16.21-47.28c.21-.56.78-.85,1.34-.85h10.64c.56,0,1.2.28,1.41.85l16.21,47.28c.28.7-.14,1.2-.92,1.2h-10.5c-.56,0-1.06-.21-1.27-.85l-1.83-5.92h-16.84l-1.83,5.92c-.21.63-.63.85-1.2.85h-10.5c-.77,0-1.2-.49-.92-1.2Zm27.9-16.42l-5-16.14-5.07,16.14h10.08Z"/>
      <path class="cls-5" d="m624.23,52.58V5.51c0-.63.42-1.13,1.06-1.13h15.5c12.12,0,17.83,6.62,17.83,16.35s-5.71,16.35-17.83,16.35h-4.3v15.5c0,.63-.49,1.13-1.13,1.13h-10.08c-.63,0-1.06-.49-1.06-1.13Zm16.28-26.35c3.24,0,6.41-.85,6.41-5.5s-3.17-5.5-6.41-5.5h-4.02v10.99h4.02Z"/>
      <path class="cls-5" d="m663.83,52.58V5.51c0-.63.42-1.13,1.06-1.13h10.08c.63,0,1.13.49,1.13,1.13v47.07c0,.63-.49,1.13-1.13,1.13h-10.08c-.63,0-1.06-.49-1.06-1.13Z"/>
    </g>
    <g>
      <path class="cls-1" d="m41.89,58.2c-3,0-5.65-1.8-6.75-4.59l-2.31-5.84-2.31,5.84c-1.1,2.79-3.75,4.59-6.75,4.59H7.26c-2.41,0-4.65-1.19-6.01-3.18-1.35-1.99-1.63-4.52-.74-6.76L17.51,5.38v-.2l.41-.83c.03-.07.06-.14.1-.21l.09-.19.21-.38.26-.41.11-.15c.04-.05.11-.14.18-.24l.11-.13s.21-.24.24-.27l.06-.07c.1-.1.17-.17.23-.24l.1-.1.17-.16.03-.03c.16-.14.28-.23.41-.33l.18-.13.11-.08.3-.19c.16-.1.34-.2.53-.29,0,0,.31-.14.37-.17.13-.06.28-.11.43-.17.07-.02.14-.05.22-.07l.14-.04c.12-.04.24-.07.35-.1.14-.04.31-.07.48-.1l.12-.02h.08s.24-.05.24-.05h.27c.19-.03.36-.03.54-.03h16.5c.18,0,.35,0,.53.02h.14s.15.01.15.01l.3.05h.11s.1.04.1.04c.14.03.27.06.41.09.09.02.21.05.32.09l.12.03c.09.03.17.05.24.08.16.06.29.11.43.16.08.03.37.17.37.17.2.1.38.2.56.31.04.02.31.2.31.2.11.08.2.14.29.21.11.08.24.19.37.3.05.04.11.1.17.15l.06.06.13.13s.1.1.17.17l.11.12.14.16.16.2.15.15.25.41.13.17.15.3.07.14.1.19c.04.09.18.38.18.38l.07.2,17.27,43.56c.89,2.24.61,4.77-.74,6.76-1.35,1.99-3.6,3.18-6.01,3.18h-16.5Z"/>
      <g>
        <path class="cls-5" d="m41.89,53.76h16.5c2,0,3.36-2.01,2.63-3.87L43.7,6.22c-.43-1.08-1.47-1.78-2.63-1.78h-16.5c-2,0-3.36,2.01-2.63,3.87l17.31,43.67c.43,1.08,1.47,1.78,2.63,1.78Z"/>
        <path class="cls-3" d="m43.7,6.22s0,0,0,0c0,0,0,.01,0,.02h0Z"/>
        <path class="cls-3" d="m43.42,5.69s.01.02.02.03c0,0-.01-.02-.02-.03Z"/>
        <path class="cls-3" d="m43.57,5.94s0,0,0,0c0,0,0,0,0,0Z"/>
        <path class="cls-3" d="m43.72,6.28c.23.62.25,1.34-.02,2.03l-10.87,27.43,1.23,3.09,15.51-17.83-5.84-14.72Z"/>
        <path class="cls-3" d="m43.24,5.45s.02.02.03.03c0-.01-.02-.02-.03-.03Z"/>
        <path class="cls-3" d="m43.06,5.25s0,0,0,0c0,0,0,0,0,0Z"/>
        <path class="cls-6" d="m23.76,53.76H7.26c-2,0-3.36-2.01-2.63-3.87L21.95,6.22c.43-1.08,1.47-1.78,2.63-1.78h16.5c2,0,3.36,2.01,2.63,3.87l-17.31,43.67c-.43,1.08-1.47,1.78-2.63,1.78Z"/>
        <path class="cls-4" d="m43.72,6.28l-.02-.05s0-.01,0-.02c-.02-.06-.05-.11-.07-.17,0-.01-.01-.03-.02-.04-.02-.05-.05-.09-.07-.14,0-.01-.02-.03-.02-.04-.03-.05-.07-.11-.1-.16-.01-.02-.02-.03-.04-.05-.03-.04-.05-.07-.08-.11-.01-.02-.03-.03-.04-.05-.03-.04-.06-.07-.09-.11-.01-.01-.02-.02-.03-.03-.42-.45-.99-.75-1.61-.85,0,0-.01,0-.02,0-.06,0-.12-.02-.18-.02-.01,0-.02,0-.04,0-.07,0-.14,0-.21,0,0,0,0,0,0,0h-16.5s0,0,0,0c-.07,0-.14,0-.21,0-.01,0-.02,0-.04,0-.06,0-.12.01-.18.02,0,0-.01,0-.02,0-.62.1-1.19.4-1.61.85-.01.01-.02.02-.03.03-.03.03-.06.07-.09.11-.01.02-.03.03-.04.05-.03.03-.05.07-.08.11-.01.02-.02.03-.04.05-.04.05-.07.1-.1.16,0,.01-.02.03-.02.04-.03.04-.05.09-.07.14,0,.01-.01.03-.02.04-.03.05-.05.11-.07.17,0,0,0,.01,0,.02l-.02.05c-.23.62-.25,1.34.02,2.03l10.87,27.43,10.87-27.43c.27-.69.26-1.4.02-2.03Z"/>
      </g>
    </g>
    <g>
      <path class="cls-2" d="m713.15,46.83c-2.61-1.56-5.83-5.13-6.77-8.52-.86,3.58-4.01,7.58-7.12,9.41l-2.64-2.84c4.75-3.07,7.66-7.47,7.74-14.55h-6.42v-3.42h16.72v3.42h-6.18c.12,6.88,3.11,11.24,7.12,13.5l-2.45,3Zm-11.55-22.64v-3.42h9.65v3.42h-9.65Zm15.6,28.7v-15.48h-4.71v-3.54h4.71v-15.36h4.01v34.38h-4.01Zm7.2,1.75V17.78h4.04v36.87h-4.04Z"/>
      <path class="cls-2" d="m732.94,26.96v-3.35h21.31v3.35h-21.31Zm10.66,13.5c-4.94,0-8.71-2.41-8.71-6.03s3.73-6.15,8.71-6.15,8.63,2.45,8.63,6.15-3.73,6.03-8.63,6.03Zm-5.33-18.94v-3.38h10.77v3.38h-10.77Zm5.33,9.96c-2.45,0-4.59,1.09-4.59,2.96s2.18,2.88,4.59,2.88,4.51-1.09,4.51-2.88-2.14-2.96-4.51-2.96Zm-4.16,22.67v-11.82h24.08v11.82h-24.08Zm19.84-8.52h-15.6v5.17h15.6v-5.17Zm-5.64-12.29v-3.54h5.64v-12.02h4.24v22.68h-4.24v-7.12h-5.64Z"/>
      <path class="cls-2" d="m768.64,29.83v-3.42h21.43v3.42h-21.43Zm10.77,17.5c-5.29,0-8.83-3.31-8.83-7.86s3.54-7.86,8.83-7.86,8.79,3.34,8.79,7.86-3.54,7.86-8.79,7.86Zm-5.6-27.38h11.2v3.46h-11.2v-3.46Zm5.6,15.13c-2.68,0-4.59,1.79-4.59,4.39s1.91,4.36,4.59,4.36c2.88,0,4.59-1.79,4.59-4.36s-1.95-4.39-4.59-4.39Zm18.12-2.14h5.72v3.54h-5.72v18.16h-4.24V17.78h4.24v15.17Z"/>
      <path class="cls-2" d="m823.75,21.67c-.23,11.43-5.95,20.26-16.57,26.06l-2.65-3.23c8.48-3.85,13.96-11.59,14.66-19.33h-12.52v-3.5h17.07Zm7.08,32.98V17.78h4.24v36.87h-4.24Z"/>
    </g>
  </g>
</svg>