<?xml version="1.0" encoding="UTF-8"?>
<svg id="_레이어_2" data-name="레이어 2" xmlns="http://www.w3.org/2000/svg" viewBox="0 0 828.67 125.03">
  <defs>
    <style>
      .cls-1 {
        fill: #fff;
      }

      .cls-2 {
        fill: #1b4577;
      }

      .cls-3 {
        fill: #2c7dff;
      }

      .cls-4 {
        fill: #052277;
      }
    </style>
  </defs>
  <g id="_레이어_1-2" data-name="레이어 1">
    <g>
      <path class="cls-1" d="m74.15,105.18H0l24.07-33.12C11.03,65.91,2.39,52.68,2.39,37.83,2.39,16.97,19.37,0,40.23,0h74.15l-24.07,33.12c13.05,6.15,21.68,19.37,21.68,34.23,0,20.86-16.97,37.83-37.83,37.83Zm-54.59-9.96h54.61c15.35,0,27.85-12.5,27.85-27.87,0-12.71-8.58-23.81-20.88-26.99l-7.09-1.83,20.76-28.57h-54.61c-15.35,0-27.85,12.5-27.85,27.87,0,12.71,8.58,23.81,20.88,26.99l7.09,1.83-20.76,28.57Z"/>
      <g>
        <path class="cls-3" d="m73.87,34.5h0s.09,0,.13,0c.04,0,.09,0,.13,0,2.85,0,5.61.36,8.24,1.04l22.21-30.56H40.49s-.09,0-.13,0c-.04,0-.09,0-.13,0C22.08,4.98,7.37,19.69,7.37,37.83c0,15.3,10.46,28.15,24.61,31.81l14.16-19.48c6.1-8.72,16-15.57,27.73-15.66Z"/>
        <path class="cls-2" d="m82.39,35.54l-14.16,19.48c-6.1,8.72-16,15.57-27.73,15.66h0s-.09,0-.13,0c-.04,0-.09,0-.13,0-2.85,0-5.61-.36-8.24-1.04l-22.21,30.56h64.1s.09,0,.13,0c.04,0,.09,0,.13,0,18.14,0,32.85-14.71,32.85-32.85,0-15.3-10.46-28.15-24.61-31.81Z"/>
        <path class="cls-4" d="m40.36,70.68s.09,0,.13,0h0c11.73-.1,21.63-6.94,27.73-15.67l14.16-19.48c-2.63-.68-5.39-1.04-8.24-1.04-.04,0-.09,0-.13,0-.04,0-.09,0-.13,0h0c-11.73.1-21.63,6.94-27.73,15.67l-14.16,19.48c2.63.68,5.39,1.04,8.24,1.04.04,0,.09,0,.13,0Z"/>
      </g>
      <g>
        <path class="cls-1" d="m143.97,97.6l31-88.9c.4-1.06,1.46-1.59,2.52-1.59h16.03c1.06,0,2.12.53,2.52,1.59l31,88.9c.53,1.32-.26,2.25-1.72,2.25h-15.63c-1.06,0-1.86-.4-2.25-1.59l-4.5-13.65h-34.98l-4.5,13.65c-.4,1.19-1.19,1.59-2.25,1.59h-15.63c-1.46,0-2.12-.93-1.59-2.25Zm53.53-29.81l-12.06-36.83-12.06,36.83h24.11Z"/>
        <path class="cls-1" d="m240.15,97.87V9.1c0-1.19.79-1.99,1.99-1.99h27.96c21.99,0,32.59,12.32,32.59,30.08s-10.6,30.21-32.59,30.21h-11v30.47c0,1.19-.79,1.99-1.99,1.99h-14.97c-1.19,0-1.99-.79-1.99-1.99Zm29.28-47.3c8.08,0,15.1-2.78,15.1-13.38s-7.02-13.25-15.1-13.25h-10.33v26.63h10.33Z"/>
        <path class="cls-1" d="m317,97.87V9.1c0-1.19.79-1.99,1.99-1.99h14.97c1.19,0,1.99.79,1.99,1.99v88.77c0,1.19-.79,1.99-1.99,1.99h-14.97c-1.19,0-1.99-.79-1.99-1.99Z"/>
        <path class="cls-3" d="m377.54,87c-.66-.93-.66-1.86.26-2.92l7.68-8.88c.93-1.06,1.99-1.19,3.05-.26,5.83,5.96,11.13,9.14,18.68,9.14s12.98-3.31,12.98-9.94c0-6.23-4.64-8.48-11.13-11.39l-11.26-5.3c-9.8-4.5-18.55-11.53-18.55-25.31,0-16.83,12.85-26.1,28.62-26.1,11,0,19.87,4.37,27.16,12.19.93.93.93,1.99.13,3.05l-7.55,9.14c-.79,1.06-1.86,1.33-2.92.53-5.7-5.04-10.33-7.55-16.16-7.55-6.76,0-11,3.31-11,8.88s3.71,7.55,10.86,10.86l9.54,4.37c10.07,4.77,20.67,11,20.67,26.63,0,18.68-15.24,27.29-31,27.29-14.44,0-24.64-7.02-30.08-14.44Z"/>
        <path class="cls-1" d="m451.6,13.21c0-5.57,4.37-10.07,10.2-10.07s10.07,4.5,10.07,10.07-4.24,10.2-10.07,10.2-10.2-4.5-10.2-10.2Zm.93,23.72c0-1.19.79-1.99,1.99-1.99h14.44c1.19,0,1.99.79,1.99,1.99v60.95c0,1.19-.79,1.99-1.99,1.99h-14.44c-1.19,0-1.99-.79-1.99-1.99v-60.95Z"/>
        <path class="cls-1" d="m486.85,97.87v-60.95c0-1.19.79-1.99,1.99-1.99h13.78c1.19,0,1.99.53,1.99,2.12l.4,6.89c3.58-6.09,9.41-10.6,18.28-10.6,8.35,0,14.84,3.97,18.42,11.53,3.58-6.62,9.94-11.53,20.01-11.53,13.91,0,22.39,9.54,22.39,26.5v38.03c0,1.19-.79,1.99-1.99,1.99h-14.31c-1.19,0-1.99-.79-1.99-1.99v-34.05c0-8.88-3.18-13.65-10.33-13.65s-10.86,4.77-10.86,13.65v34.05c0,1.19-.79,1.99-1.99,1.99h-14.18c-1.33,0-2.12-.79-2.12-1.99v-34.05c0-8.88-3.31-13.65-10.33-13.65s-10.86,4.77-10.86,13.65v34.05c0,1.19-.79,1.99-1.99,1.99h-14.31c-1.19,0-1.99-.79-1.99-1.99Z"/>
        <path class="cls-1" d="m599.73,123.04V36.92c0-1.19.79-1.99,1.99-1.99h13.12c1.19,0,1.99.79,1.99,1.99l.27,7.15c4.37-6.76,11.26-10.73,21.2-10.73,18.15,0,30.74,14.84,30.74,34.05s-12.59,34.05-30.74,34.05c-8.88,0-15.63-3.44-20.14-9.27v30.87c0,1.19-.79,1.99-1.99,1.99h-14.44c-1.19,0-1.99-.79-1.99-1.99Zm34.71-38.29c9.54,0,16.69-6.89,16.69-17.36s-7.15-17.36-16.69-17.36-16.56,6.89-16.56,17.36,6.76,17.36,16.56,17.36Z"/>
        <path class="cls-1" d="m681.47,97.87V7.11c0-1.19.79-1.99,1.99-1.99h14.44c1.19,0,1.99.79,1.99,1.99v90.76c0,1.19-.79,1.99-1.99,1.99h-14.44c-1.19,0-1.99-.79-1.99-1.99Z"/>
        <path class="cls-1" d="m712.34,67.13c0-19.08,13.38-33.79,33.39-33.79s31.14,14.57,31.14,31c0,6.36-1.46,9.94-7.15,9.94h-39.48c1.99,8.21,8.74,12.72,19.21,12.72,5.03,0,9.8-.93,15.1-3.97.93-.53,1.59-.4,2.25.53l4.9,6.76c.66.93.53,1.85-.66,2.91-5.56,5.57-13.91,8.21-23.05,8.21-21.33,0-35.64-14.71-35.64-34.32Zm48.23-5.7c-1.06-8.61-6.89-12.98-14.71-12.98s-14.31,4.37-15.9,12.98h30.61Z"/>
        <path class="cls-1" d="m789.18,97.87v-60.95c0-1.19.79-1.99,1.99-1.99h13.78c1.19,0,1.85.53,1.99,2.12l.53,8.35c2.25-6.89,6.36-12.06,14.04-12.06,3.05,0,4.9.79,5.96,1.59.93.66,1.19,1.46,1.19,2.65v11.66c0,1.59-.93,1.99-2.65,1.59-1.46-.4-2.91-.66-4.77-.66-9.01,0-13.78,5.96-13.78,15.24v32.46c0,1.19-.79,1.99-1.99,1.99h-14.31c-1.19,0-1.99-.79-1.99-1.99Z"/>
      </g>
    </g>
  </g>
</svg>