<?xml version="1.0" encoding="UTF-8"?>
<svg id="_레이어_2" data-name="레이어 2" xmlns="http://www.w3.org/2000/svg" viewBox="0 0 1227.1 142.06">
  <defs>
    <style>
      .cls-1 {
        fill: #fff;
      }

      .cls-2 {
        fill: #1b4577;
      }

      .cls-3 {
        fill: #2c7dff;
      }

      .cls-4 {
        fill: #474747;
      }

      .cls-5 {
        fill: #052277;
      }
    </style>
  </defs>
  <g id="_레이어_1-2" data-name="레이어 1">
    <path class="cls-1" d="m96.75,137.25H0l31.41-43.22C14.39,86.01,3.12,68.75,3.12,49.37,3.12,22.15,25.27,0,52.49,0h96.75l-31.41,43.22c17.02,8.02,28.29,25.28,28.29,44.66,0,27.22-22.15,49.37-49.37,49.37Zm-71.24-13h71.26c20.03,0,36.35-16.31,36.35-36.37,0-16.59-11.2-31.07-27.24-35.21l-9.25-2.39,27.09-37.28H52.47c-20.03,0-36.35,16.31-36.35,36.37,0,16.59,11.2,31.07,27.24,35.21l9.25,2.39-27.09,37.28Z"/>
    <g>
      <path class="cls-3" d="m96.4,45.02h.01c.06,0,.12,0,.17,0,.06,0,.12,0,.17,0,3.71,0,7.32.47,10.75,1.36l28.98-39.87H52.84c-.06,0-.12,0-.17,0-.06,0-.12,0-.17,0C28.82,6.5,9.62,25.69,9.62,49.37c0,19.96,13.64,36.74,32.12,41.51l18.47-25.42c7.96-11.38,20.88-20.31,36.18-20.44Z"/>
      <path class="cls-2" d="m107.51,46.37l-18.47,25.42c-7.96,11.38-20.88,20.31-36.18,20.44h-.01c-.06,0-.12,0-.17,0-.06,0-.12,0-.17,0-3.71,0-7.32-.47-10.75-1.36l-28.98,39.87h83.65c.06,0,.12,0,.17,0,.06,0,.12,0,.17,0,23.68,0,42.87-19.19,42.87-42.87,0-19.96-13.64-36.74-32.12-41.51Z"/>
      <path class="cls-5" d="m52.67,92.23c.06,0,.12,0,.17,0h.01c15.31-.13,28.22-9.06,36.18-20.45l18.47-25.42c-3.44-.89-7.04-1.36-10.75-1.36-.06,0-.12,0-.17,0-.06,0-.12,0-.17,0h-.01c-15.31.13-28.22,9.06-36.18,20.45l-18.47,25.42c3.44.89,7.04,1.36,10.75,1.36.06,0,.12,0,.17,0Z"/>
    </g>
    <g>
      <path class="cls-4" d="m191.84,114.9V26.13c0-1.19.79-1.99,1.99-1.99h27.29c31,0,47.3,20.27,47.3,46.37s-16.3,46.37-47.3,46.37h-27.29c-1.19,0-1.99-.79-1.99-1.99Zm29.02-14.84c18.81,0,28.35-10.47,28.35-29.55s-9.54-29.55-28.35-29.55h-10.07v59.09h10.07Z"/>
      <path class="cls-4" d="m281.27,30.24c0-5.57,4.37-10.07,10.2-10.07s10.07,4.5,10.07,10.07-4.24,10.2-10.07,10.2-10.2-4.5-10.2-10.2Zm.93,23.72c0-1.19.79-1.99,1.99-1.99h14.44c1.19,0,1.99.79,1.99,1.99v60.95c0,1.19-.79,1.99-1.99,1.99h-14.44c-1.19,0-1.99-.79-1.99-1.99v-60.95Z"/>
      <path class="cls-4" d="m313.2,84.43c0-19.21,12.59-34.05,30.87-34.05,9.01,0,15.63,3.31,20.01,9.14V24.15c0-1.19.79-1.99,1.99-1.99h14.44c1.19,0,1.99.79,1.99,1.99v90.76c0,1.19-.93,1.99-2.12,1.99h-12.85c-1.19,0-1.99-.79-1.99-1.99l-.27-7.15c-4.5,6.62-11.53,10.73-21.2,10.73-18.28,0-30.87-14.71-30.87-34.05Zm34.71,17.36c9.67,0,16.43-6.89,16.43-17.36s-6.76-17.36-16.43-17.36-16.83,7.02-16.83,17.36,7.16,17.36,16.83,17.36Z"/>
      <path class="cls-4" d="m397.46,30.24c0-5.57,4.37-10.07,10.2-10.07s10.07,4.5,10.07,10.07-4.24,10.2-10.07,10.2-10.2-4.5-10.2-10.2Zm.93,23.72c0-1.19.79-1.99,1.99-1.99h14.44c1.19,0,1.99.79,1.99,1.99v60.95c0,1.19-.79,1.99-1.99,1.99h-14.44c-1.19,0-1.99-.79-1.99-1.99v-60.95Z"/>
      <path class="cls-4" d="m432.7,114.9v-60.95c0-1.19.79-1.99,1.99-1.99h13.78c1.19,0,1.99.53,1.99,2.12l.4,6.89c3.58-6.09,9.41-10.6,18.28-10.6,8.35,0,14.84,3.97,18.42,11.53,3.58-6.62,9.94-11.53,20.01-11.53,13.91,0,22.39,9.54,22.39,26.5v38.03c0,1.19-.79,1.99-1.99,1.99h-14.31c-1.19,0-1.99-.79-1.99-1.99v-34.05c0-8.88-3.18-13.65-10.33-13.65s-10.86,4.77-10.86,13.65v34.05c0,1.19-.79,1.99-1.99,1.99h-14.18c-1.32,0-2.12-.79-2.12-1.99v-34.05c0-8.88-3.31-13.65-10.33-13.65s-10.86,4.77-10.86,13.65v34.05c0,1.19-.79,1.99-1.99,1.99h-14.31c-1.19,0-1.99-.79-1.99-1.99Z"/>
      <path class="cls-4" d="m542.4,114.64l31-88.9c.4-1.06,1.46-1.59,2.52-1.59h16.03c1.06,0,2.12.53,2.52,1.59l31,88.9c.53,1.32-.26,2.25-1.72,2.25h-15.63c-1.06,0-1.86-.4-2.25-1.59l-4.5-13.65h-34.98l-4.5,13.65c-.4,1.19-1.19,1.59-2.25,1.59h-15.63c-1.46,0-2.12-.93-1.59-2.25Zm53.53-29.81l-12.06-36.83-12.06,36.83h24.11Z"/>
      <path class="cls-4" d="m638.59,114.9V26.13c0-1.19.79-1.99,1.99-1.99h27.96c21.99,0,32.59,12.32,32.59,30.08s-10.6,30.21-32.59,30.21h-11v30.47c0,1.19-.79,1.99-1.99,1.99h-14.97c-1.19,0-1.99-.79-1.99-1.99Zm29.28-47.3c8.08,0,15.1-2.78,15.1-13.38s-7.02-13.25-15.1-13.25h-10.33v26.63h10.33Z"/>
      <path class="cls-4" d="m715.43,114.9V26.13c0-1.19.79-1.99,1.99-1.99h14.97c1.19,0,1.99.79,1.99,1.99v88.77c0,1.19-.79,1.99-1.99,1.99h-14.97c-1.19,0-1.99-.79-1.99-1.99Z"/>
      <path class="cls-3" d="m775.98,104.04c-.66-.93-.66-1.86.26-2.92l7.68-8.88c.93-1.06,1.99-1.19,3.05-.26,5.83,5.96,11.13,9.14,18.68,9.14s12.98-3.31,12.98-9.94c0-6.23-4.64-8.48-11.13-11.39l-11.26-5.3c-9.8-4.5-18.55-11.53-18.55-25.31,0-16.83,12.85-26.1,28.62-26.1,11,0,19.87,4.37,27.16,12.19.93.93.93,1.99.13,3.05l-7.55,9.14c-.79,1.06-1.86,1.33-2.92.53-5.7-5.04-10.33-7.55-16.16-7.55-6.76,0-11,3.31-11,8.88s3.71,7.55,10.86,10.86l9.54,4.37c10.07,4.77,20.67,11,20.67,26.63,0,18.68-15.24,27.29-31,27.29-14.44,0-24.64-7.02-30.08-14.44Z"/>
      <path class="cls-4" d="m850.04,30.24c0-5.57,4.37-10.07,10.2-10.07s10.07,4.5,10.07,10.07-4.24,10.2-10.07,10.2-10.2-4.5-10.2-10.2Zm.93,23.72c0-1.19.79-1.99,1.99-1.99h14.44c1.19,0,1.99.79,1.99,1.99v60.95c0,1.19-.79,1.99-1.99,1.99h-14.44c-1.19,0-1.99-.79-1.99-1.99v-60.95Z"/>
      <path class="cls-4" d="m885.28,114.9v-60.95c0-1.19.79-1.99,1.99-1.99h13.78c1.19,0,1.99.53,1.99,2.12l.4,6.89c3.58-6.09,9.41-10.6,18.28-10.6,8.35,0,14.84,3.97,18.42,11.53,3.58-6.62,9.94-11.53,20.01-11.53,13.91,0,22.39,9.54,22.39,26.5v38.03c0,1.19-.79,1.99-1.99,1.99h-14.31c-1.19,0-1.99-.79-1.99-1.99v-34.05c0-8.88-3.18-13.65-10.33-13.65s-10.86,4.77-10.86,13.65v34.05c0,1.19-.79,1.99-1.99,1.99h-14.18c-1.33,0-2.12-.79-2.12-1.99v-34.05c0-8.88-3.31-13.65-10.33-13.65s-10.86,4.77-10.86,13.65v34.05c0,1.19-.79,1.99-1.99,1.99h-14.31c-1.19,0-1.99-.79-1.99-1.99Z"/>
      <path class="cls-4" d="m998.16,140.08V53.96c0-1.19.79-1.99,1.99-1.99h13.12c1.19,0,1.99.79,1.99,1.99l.27,7.15c4.37-6.76,11.26-10.73,21.2-10.73,18.15,0,30.74,14.84,30.74,34.05s-12.59,34.05-30.74,34.05c-8.88,0-15.63-3.44-20.14-9.27v30.87c0,1.19-.79,1.99-1.99,1.99h-14.44c-1.19,0-1.99-.79-1.99-1.99Zm34.71-38.29c9.54,0,16.69-6.89,16.69-17.36s-7.15-17.36-16.69-17.36-16.56,6.89-16.56,17.36,6.76,17.36,16.56,17.36Z"/>
      <path class="cls-4" d="m1079.91,114.9V24.15c0-1.19.79-1.99,1.99-1.99h14.44c1.19,0,1.99.79,1.99,1.99v90.76c0,1.19-.79,1.99-1.99,1.99h-14.44c-1.19,0-1.99-.79-1.99-1.99Z"/>
      <path class="cls-4" d="m1110.78,84.16c0-19.08,13.38-33.79,33.39-33.79s31.14,14.57,31.14,31c0,6.36-1.46,9.94-7.15,9.94h-39.48c1.99,8.21,8.74,12.72,19.21,12.72,5.03,0,9.8-.93,15.1-3.97.93-.53,1.59-.4,2.25.53l4.9,6.76c.66.93.53,1.85-.66,2.91-5.56,5.57-13.91,8.21-23.05,8.21-21.33,0-35.64-14.71-35.64-34.32Zm48.23-5.7c-1.06-8.61-6.89-12.98-14.71-12.98s-14.31,4.37-15.9,12.98h30.61Z"/>
      <path class="cls-4" d="m1187.62,114.9v-60.95c0-1.19.79-1.99,1.99-1.99h13.78c1.19,0,1.85.53,1.99,2.12l.53,8.35c2.25-6.89,6.36-12.06,14.04-12.06,3.05,0,4.9.79,5.96,1.59.93.66,1.19,1.46,1.19,2.65v11.66c0,1.59-.93,1.99-2.65,1.59-1.46-.4-2.91-.66-4.77-.66-9.01,0-13.78,5.96-13.78,15.24v32.46c0,1.19-.79,1.99-1.99,1.99h-14.31c-1.19,0-1.99-.79-1.99-1.99Z"/>
    </g>
  </g>
</svg>