<?xml version="1.0" encoding="UTF-8"?>
<svg xmlns="http://www.w3.org/2000/svg" viewBox="0 0 430.75 430.75">
  <defs>
    <style>
      .cls-1 {
        fill: #1b4577;
        mix-blend-mode: multiply;
      }

      .cls-2 {
        isolation: isolate;
      }

      .cls-3 {
        fill: #2c7dff;
      }

      .cls-4 {
        fill: none;
      }
    </style>
  </defs>
  <g class="cls-2">
    <g id="_레이어_2" data-name="레이어 2">
      <g id="_레이어_1-2" data-name="레이어 1">
        <rect class="cls-4" width="430.75" height="430.75"/>
        <g>
          <path class="cls-3" d="m261.72,218.46L397.87,31.12h-240c-.17,0-.33,0-.5,0-.17,0-.33,0-.5,0-67.93,0-123,55.07-123,123s55.07,123,123,123c.17,0,.33,0,.5,0,.17,0,.33,0,.5,0l.03-.02c43.91-.36,80.97-25.98,103.81-58.65Z"/>
          <path class="cls-1" d="m179.03,200.29L42.87,387.62h240c.17,0,.33,0,.5,0,.17,0,.33,0,.5,0,67.93,0,123-55.07,123-123s-55.07-123-123-123c-.17,0-.33,0-.5,0-.17,0-.33,0-.5,0l-.03.02c-43.91.36-80.97,25.98-103.81,58.65Z"/>
        </g>
      </g>
    </g>
  </g>
</svg>